<?xml version="1.0" standalone="no"?><!DOCTYPE svg PUBLIC "-//W3C//DTD SVG 1.1//EN" "http://www.w3.org/Graphics/SVG/1.1/DTD/svg11.dtd"><svg t="1596522547004" class="icon" viewBox="0 0 1024 1024" version="1.1" xmlns="http://www.w3.org/2000/svg" p-id="1259" width="128" height="128" xmlns:xlink="http://www.w3.org/1999/xlink"><defs><style type="text/css"></style></defs><path d="M828.256874 193.254445c-84.71645-84.71952-197.355857-131.374096-317.163523-131.374096S278.646278 108.535949 193.929828 193.254445C109.212354 277.971919 62.556755 390.609279 62.556755 510.417969c0 87.284949 25.098631 171.905208 72.581062 244.714468 9.41237 14.433734 28.744671 18.502399 43.179428 9.092076 14.432711-9.41237 18.504446-28.744671 9.091052-43.178405-40.854477-62.645782-62.448284-135.479601-62.448284-210.628138 0-212.914204 173.220157-386.135384 386.135384-386.135384S897.230782 297.502741 897.230782 510.417969 724.009601 896.55233 511.093351 896.55233c-70.50375 0-139.479705-19.171642-199.470007-55.43966-14.745842-8.91709-33.92874-4.190439-42.844807 10.556427-8.915044 14.747889-4.189416 33.929764 10.558473 42.843784 69.730131 42.158169 149.870356 64.442708 231.756341 64.442708 119.80869 0 232.447073-46.6556 317.163523-131.374096 84.717474-84.71645 131.373073-197.355857 131.373073-317.1625C959.628924 390.610302 912.974347 277.971919 828.256874 193.254445L828.256874 193.254445z" p-id="1260" fill="#1afa29"></path><path d="M438.159248 712.514803c10.113335 0 20.228717-3.859911 27.945469-11.57564l297.673633-297.673633c15.432481-15.432481 15.432481-40.456411 0-55.889915-15.434527-15.434527-40.458457-15.434527-55.892985 0L438.159248 617.102756 317.2679 496.212432c-15.432481-15.437597-40.458457-15.437597-55.891961 0-15.434527 15.434527-15.434527 40.457434 0 55.889915l148.835793 148.836817C417.929508 708.655915 428.04489 712.514803 438.159248 712.514803L438.159248 712.514803z" p-id="1261" fill="#1afa29"></path></svg>